<svg xmlns="http://www.w3.org/2000/svg" viewBox="0 0 512 512" role="img" aria-labelledby="title desc">
  <title id="title">Red Light Green Light logo</title>
  <desc id="desc">A traffic signal representing discuss, plan, and execute.</desc>
  <rect width="512" height="512" rx="112" fill="#101417"/>
  <path d="M256 58c-19 0-35 16-35 35v24h-24c-31 0-56 25-56 56v202c0 31 25 56 56 56h118c31 0 56-25 56-56V173c0-31-25-56-56-56h-24V93c0-19-16-35-35-35Zm0 42c4 0 7 3 7 7v10h-14v-10c0-4 3-7 7-7Z" fill="#252C31"/>
  <rect x="157" y="133" width="198" height="282" rx="40" fill="#171D21" stroke="#3A454D" stroke-width="8"/>
  <circle cx="256" cy="199" r="48" fill="#F04444"/>
  <path d="M232 199h48" fill="none" stroke="#5D0D12" stroke-width="12" stroke-linecap="round"/>
  <circle cx="256" cy="274" r="48" fill="#F6B73C"/>
  <path d="M239 250h25a9 9 0 0 1 9 9v31a9 9 0 0 1-9 9h-25a9 9 0 0 1-9-9v-31a9 9 0 0 1 9-9Z" fill="none" stroke="#5B3D00" stroke-width="7" stroke-linejoin="round"/>
  <path d="m238 266 5 5 9-10m-14 24 5 5 9-10" fill="none" stroke="#5B3D00" stroke-width="6" stroke-linecap="round" stroke-linejoin="round"/>
  <path d="M261 269h6m-6 19h6" stroke="#5B3D00" stroke-width="6" stroke-linecap="round"/>
  <circle cx="256" cy="349" r="48" fill="#35C86A"/>
  <path d="M231 349h38m-14-18 18 18-18 18" fill="none" stroke="#073B1D" stroke-width="11" stroke-linecap="round" stroke-linejoin="round"/>
</svg>
